<svg width="45" height="36" viewBox="0 0 45 36" fill="none" xmlns="http://www.w3.org/2000/svg">
<path d="M23.818 3.18198C25.5754 1.42462 28.4246 1.42462 30.182 3.18198L41.818 14.818C43.5754 16.5754 43.5754 19.4246 41.818 21.182L30.182 32.818C28.4246 34.5754 25.5754 34.5754 23.818 32.818L12.182 21.182C10.4246 19.4246 10.4246 16.5754 12.182 14.818L23.818 3.18198Z" fill="url(#paint0_linear_1469_3339)"/>
<path d="M12 13V35" stroke="#FF2D38" stroke-width="2" stroke-linecap="round" stroke-linejoin="round"/>
<path d="M17 17H9.5C8.57174 17 7.6815 17.3687 7.02513 18.0251C6.36875 18.6815 6 19.5717 6 20.5C6 21.4283 6.36875 22.3185 7.02513 22.9749C7.6815 23.6313 8.57174 24 9.5 24H14.5C15.4283 24 16.3185 24.3687 16.9749 25.0251C17.6313 25.6815 18 26.5717 18 27.5C18 28.4283 17.6313 29.3185 16.9749 29.9749C16.3185 30.6313 15.4283 31 14.5 31H6" stroke="#FF2D38" stroke-width="2" stroke-linecap="round" stroke-linejoin="round"/>
<defs>
<linearGradient id="paint0_linear_1469_3339" x1="37" y1="-4" x2="27" y2="29.5" gradientUnits="userSpaceOnUse">
<stop stop-color="#D2D2D2"/>
<stop offset="1" stop-color="#DEDEDE" stop-opacity="0"/>
</linearGradient>
</defs>
</svg>
