<svg width="28" height="28" viewBox="0 0 28 28" fill="none" xmlns="http://www.w3.org/2000/svg">
<g clip-path="url(#clip0_126_23040)">
<path d="M20.6311 9.54758L9.66831 7.42549C9.58435 7.40953 9.4972 7.42376 9.42181 7.46728L7.71102 8.45501C7.56797 8.5376 7.60493 8.75339 7.76675 8.78368L17.9293 10.7518L6.61684 17.283C6.53178 17.3322 6.50237 17.4419 6.55148 17.527L7.22112 18.6868C7.27023 18.7719 7.38 18.8013 7.46506 18.7522L18.7756 12.2221L15.3987 22.0071C15.3452 22.1644 15.5125 22.3023 15.6555 22.2197L17.4243 21.1985C17.461 21.1773 17.4899 21.1426 17.5025 21.1018L21.1713 10.4832C21.2046 10.3864 21.2168 10.2835 21.207 10.1816C21.1971 10.0797 21.1656 9.98101 21.1144 9.89233C21.0632 9.80364 20.9935 9.72698 20.9102 9.6675C20.8268 9.60803 20.7317 9.56714 20.6311 9.54758Z" fill="#F5222D"/>
</g>
<defs>
<clipPath id="clip0_126_23040">
<rect width="20" height="20" fill="white" transform="translate(0.339844 10.3398) rotate(-30)"/>
</clipPath>
</defs>
</svg>
