<svg width="90" height="22" viewBox="0 0 90 22" fill="none" xmlns="http://www.w3.org/2000/svg">
<path d="M15.25 8.15825L16.0083 7.40825C16.1653 7.25133 16.2534 7.0385 16.2534 6.81659C16.2534 6.59467 16.1653 6.38184 16.0083 6.22492C15.8514 6.068 15.6386 5.97984 15.4167 5.97984C15.1947 5.97984 14.9819 6.068 14.825 6.22492L14.075 6.98325C12.9071 6.0798 11.4724 5.58961 9.99583 5.58961C8.5193 5.58961 7.08454 6.0798 5.91667 6.98325L5.15833 6.21659C5.00031 6.05967 4.78642 5.97195 4.56372 5.97273C4.34102 5.97351 4.12775 6.06273 3.97083 6.22075C3.81391 6.37878 3.7262 6.59267 3.72698 6.81536C3.72776 7.03806 3.81698 7.25133 3.975 7.40825L4.74167 8.16659C3.82751 9.33121 3.33149 10.7694 3.33333 12.2499C3.33061 13.3128 3.58205 14.3609 4.06669 15.3068C4.55132 16.2527 5.2551 17.0691 6.11933 17.6878C6.98356 18.3065 7.98318 18.7096 9.03484 18.8634C10.0865 19.0173 11.1597 18.9175 12.165 18.5723C13.1702 18.2272 14.0784 17.6467 14.8137 16.8792C15.549 16.1118 16.0902 15.1796 16.3921 14.1606C16.694 13.1415 16.7478 12.065 16.5492 11.0209C16.3505 9.97675 15.9051 8.99525 15.25 8.15825ZM10 17.2499C9.0111 17.2499 8.0444 16.9567 7.22215 16.4073C6.3999 15.8579 5.75904 15.077 5.3806 14.1633C5.00217 13.2497 4.90315 12.2444 5.09608 11.2745C5.289 10.3046 5.76521 9.41365 6.46447 8.71438C7.16373 8.01512 8.05465 7.53892 9.02455 7.34599C9.99445 7.15307 10.9998 7.25208 11.9134 7.63052C12.827 8.00896 13.6079 8.64982 14.1573 9.47207C14.7068 10.2943 15 11.261 15 12.2499C15 13.576 14.4732 14.8478 13.5355 15.7855C12.5979 16.7231 11.3261 17.2499 10 17.2499ZM8.33333 4.74992H11.6667C11.8877 4.74992 12.0996 4.66212 12.2559 4.50584C12.4122 4.34956 12.5 4.1376 12.5 3.91659C12.5 3.69557 12.4122 3.48361 12.2559 3.32733C12.0996 3.17105 11.8877 3.08325 11.6667 3.08325H8.33333C8.11232 3.08325 7.90036 3.17105 7.74408 3.32733C7.5878 3.48361 7.5 3.69557 7.5 3.91659C7.5 4.1376 7.5878 4.34956 7.74408 4.50584C7.90036 4.66212 8.11232 4.74992 8.33333 4.74992ZM10.8333 9.74992C10.8333 9.5289 10.7455 9.31694 10.5893 9.16066C10.433 9.00438 10.221 8.91658 10 8.91658C9.77899 8.91658 9.56703 9.00438 9.41075 9.16066C9.25447 9.31694 9.16667 9.5289 9.16667 9.74992V11.3249C8.97798 11.4937 8.84498 11.7158 8.78527 11.9618C8.72556 12.2078 8.74195 12.4661 8.83229 12.7026C8.92262 12.9391 9.08263 13.1426 9.29114 13.2862C9.49965 13.4297 9.74685 13.5066 10 13.5066C10.2532 13.5066 10.5003 13.4297 10.7089 13.2862C10.9174 13.1426 11.0774 12.9391 11.1677 12.7026C11.258 12.4661 11.2744 12.2078 11.2147 11.9618C11.155 11.7158 11.022 11.4937 10.8333 11.3249V9.74992Z" fill="#141414"/>
<path d="M34.3595 16V13.248L28.5675 13.232V11.808L34.0075 4.16H35.9275V11.888H37.9915V13.248H35.9275V16H34.3595ZM30.1835 11.888H34.3595V6L30.1835 11.888ZM44.4549 16.144C43.7189 16.144 43.0682 15.984 42.5029 15.664C41.9375 15.3333 41.4629 14.8907 41.0789 14.336C40.7055 13.7707 40.4175 13.12 40.2149 12.384C40.0229 11.648 39.9269 10.8747 39.9269 10.064C39.9269 9.24267 40.0229 8.46933 40.2149 7.744C40.4175 7.008 40.7055 6.35733 41.0789 5.792C41.4629 5.22667 41.9375 4.784 42.5029 4.464C43.0682 4.144 43.7189 3.984 44.4549 3.984C45.1909 3.984 45.8415 4.144 46.4069 4.464C46.9722 4.784 47.4415 5.22667 47.8149 5.792C48.1989 6.35733 48.4869 7.008 48.6789 7.744C48.8815 8.46933 48.9829 9.24267 48.9829 10.064C48.9829 10.8747 48.8815 11.648 48.6789 12.384C48.4869 13.12 48.1989 13.7707 47.8149 14.336C47.4415 14.8907 46.9722 15.3333 46.4069 15.664C45.8415 15.984 45.1909 16.144 44.4549 16.144ZM44.4549 14.704C45.2975 14.704 45.9909 14.3147 46.5349 13.536C47.0895 12.7467 47.3669 11.5893 47.3669 10.064C47.3669 8.53867 47.0895 7.38667 46.5349 6.608C45.9909 5.82933 45.2975 5.44 44.4549 5.44C43.6122 5.44 42.9135 5.82933 42.3589 6.608C41.8149 7.38667 41.5429 8.53867 41.5429 10.064C41.5429 11.5787 41.8149 12.7307 42.3589 13.52C42.9135 14.3093 43.6122 14.704 44.4549 14.704ZM54.8269 19.136V7.52H56.3469V8.864H56.4429C56.5709 8.66133 56.7415 8.44267 56.9549 8.208C57.1789 7.97333 57.4722 7.776 57.8349 7.616C58.1975 7.44533 58.6455 7.36 59.1789 7.36C59.8189 7.36 60.3789 7.488 60.8589 7.744C61.3389 7.98933 61.7389 8.32533 62.0589 8.752C62.3789 9.168 62.6189 9.63733 62.7789 10.16C62.9389 10.6827 63.0189 11.216 63.0189 11.76C63.0189 12.304 62.9389 12.8373 62.7789 13.36C62.6189 13.8827 62.3789 14.3573 62.0589 14.784C61.7389 15.2 61.3389 15.536 60.8589 15.792C60.3789 16.0373 59.8189 16.16 59.1789 16.16C58.6455 16.16 58.1975 16.0747 57.8349 15.904C57.4722 15.7333 57.1789 15.5307 56.9549 15.296C56.7415 15.0613 56.5709 14.848 56.4429 14.656H56.3469V19.136H54.8269ZM56.3789 11.76C56.3789 12.272 56.4695 12.768 56.6509 13.248C56.8429 13.7173 57.1255 14.1067 57.4989 14.416C57.8829 14.7147 58.3575 14.864 58.9229 14.864C59.4989 14.864 59.9735 14.7147 60.3469 14.416C60.7309 14.1067 61.0135 13.7173 61.1949 13.248C61.3869 12.768 61.4829 12.272 61.4829 11.76C61.4829 11.2373 61.3869 10.7413 61.1949 10.272C61.0135 9.80267 60.7309 9.41867 60.3469 9.12C59.9735 8.81067 59.4989 8.656 58.9229 8.656C58.3575 8.656 57.8829 8.81067 57.4989 9.12C57.1255 9.41867 56.8429 9.80267 56.6509 10.272C56.4695 10.7413 56.3789 11.2373 56.3789 11.76ZM65.2644 16V3.84H66.7844V8.752H66.8804C66.955 8.624 67.0777 8.448 67.2484 8.224C67.4297 8 67.6857 7.80267 68.0164 7.632C68.347 7.45067 68.763 7.36 69.2644 7.36C69.883 7.36 70.411 7.504 70.8484 7.792C71.2857 8.06933 71.6164 8.448 71.8404 8.928C72.075 9.408 72.1924 9.94667 72.1924 10.544V16H70.6724V10.64C70.6724 10.0747 70.5124 9.60533 70.1924 9.232C69.883 8.85867 69.4297 8.672 68.8324 8.672C68.3524 8.672 67.963 8.79467 67.6644 9.04C67.3657 9.27467 67.1417 9.58933 66.9924 9.984C66.8537 10.368 66.7844 10.7787 66.7844 11.216V16H65.2644ZM78.6885 6.24L77.3925 6.224L78.7685 3.344H80.3365L78.6885 6.24ZM77.4405 16.16C76.5978 16.16 75.9258 15.8987 75.4245 15.376C74.9232 14.8533 74.6725 14.128 74.6725 13.2V7.52H76.1925V13.12C76.1925 13.6747 76.3418 14.1013 76.6405 14.4C76.9498 14.6987 77.3552 14.848 77.8565 14.848C78.3685 14.848 78.7792 14.7147 79.0885 14.448C79.3978 14.1813 79.6218 13.84 79.7605 13.424C79.8992 13.008 79.9685 12.5813 79.9685 12.144V7.52H81.4885V16H79.9685V14.784H79.8725C79.8085 14.912 79.6858 15.088 79.5045 15.312C79.3232 15.5253 79.0672 15.7227 78.7365 15.904C78.4058 16.0747 77.9738 16.16 77.4405 16.16ZM87.4856 16.16C86.611 16.16 85.9496 15.936 85.5016 15.488C85.0643 15.04 84.8456 14.4107 84.8456 13.6V8.768H83.3256V7.52H84.8456V5.392H86.3656V7.52H88.4296V8.768H86.3656V13.6C86.3656 14.0267 86.483 14.3413 86.7176 14.544C86.9523 14.736 87.2936 14.832 87.7416 14.832C87.9763 14.832 88.2003 14.816 88.4136 14.784C88.627 14.752 88.7336 14.736 88.7336 14.736V16.032C88.7336 16.032 88.611 16.0533 88.3656 16.096C88.1203 16.1387 87.827 16.16 87.4856 16.16Z" fill="#141414"/>
</svg>
